solid OpenSCAD_Model
  facet normal -0.951056 -0.309019 0
    outer loop
      vertex 3.175 -14.2875 -15.875
      vertex 2.56863 -12.4213 -10.025
      vertex 2.56863 -12.4213 -15.875
    endloop
  endfacet
  facet normal -0.951056 -0.309019 0
    outer loop
      vertex 2.56863 -12.4213 -10.025
      vertex 3.175 -14.2875 -15.875
      vertex 3.175 -14.2875 -10.025
    endloop
  endfacet
  facet normal 0.951056 -0.309019 0
    outer loop
      vertex -3.175 -14.2875 -10.025
      vertex -2.56863 -12.4213 -15.875
      vertex -2.56863 -12.4213 -10.025
    endloop
  endfacet
  facet normal 0.951056 -0.309019 0
    outer loop
      vertex -2.56863 -12.4213 -15.875
      vertex -3.175 -14.2875 -10.025
      vertex -3.175 -14.2875 -15.875
    endloop
  endfacet
  facet normal 0 1 -0
    outer loop
      vertex 0.981129 -17.3071 -15.875
      vertex -0.981129 -17.3071 -10.025
      vertex 0.981129 -17.3071 -10.025
    endloop
  endfacet
  facet normal 0 1 0
    outer loop
      vertex -0.981129 -17.3071 -10.025
      vertex 0.981129 -17.3071 -15.875
      vertex -0.981129 -17.3071 -15.875
    endloop
  endfacet
  facet normal 0 -1 0
    outer loop
      vertex -0.981129 -11.2679 -15.875
      vertex 0.981129 -11.2679 -10.025
      vertex -0.981129 -11.2679 -10.025
    endloop
  endfacet
  facet normal 0 -1 -0
    outer loop
      vertex 0.981129 -11.2679 -10.025
      vertex -0.981129 -11.2679 -15.875
      vertex 0.981129 -11.2679 -15.875
    endloop
  endfacet
  facet normal -0.58779 -0.809014 0
    outer loop
      vertex 0.981129 -11.2679 -15.875
      vertex 2.56863 -12.4213 -10.025
      vertex 0.981129 -11.2679 -10.025
    endloop
  endfacet
  facet normal -0.58779 -0.809014 -0
    outer loop
      vertex 2.56863 -12.4213 -10.025
      vertex 0.981129 -11.2679 -15.875
      vertex 2.56863 -12.4213 -15.875
    endloop
  endfacet
  facet normal 0.58779 -0.809014 0
    outer loop
      vertex -2.56863 -12.4213 -15.875
      vertex -0.981129 -11.2679 -10.025
      vertex -2.56863 -12.4213 -10.025
    endloop
  endfacet
  facet normal 0.58779 -0.809014 0
    outer loop
      vertex -0.981129 -11.2679 -10.025
      vertex -2.56863 -12.4213 -15.875
      vertex -0.981129 -11.2679 -15.875
    endloop
  endfacet
  facet normal -0.951056 0.309019 0
    outer loop
      vertex 2.56863 -16.1537 -15.875
      vertex 3.175 -14.2875 -10.025
      vertex 3.175 -14.2875 -15.875
    endloop
  endfacet
  facet normal -0.951056 0.309019 0
    outer loop
      vertex 3.175 -14.2875 -10.025
      vertex 2.56863 -16.1537 -15.875
      vertex 2.56863 -16.1537 -10.025
    endloop
  endfacet
  facet normal -0.58779 0.809014 0
    outer loop
      vertex 2.56863 -16.1537 -15.875
      vertex 0.981129 -17.3071 -10.025
      vertex 2.56863 -16.1537 -10.025
    endloop
  endfacet
  facet normal -0.58779 0.809014 0
    outer loop
      vertex 0.981129 -17.3071 -10.025
      vertex 2.56863 -16.1537 -15.875
      vertex 0.981129 -17.3071 -15.875
    endloop
  endfacet
  facet normal 0.58779 0.809014 -0
    outer loop
      vertex -0.981129 -17.3071 -15.875
      vertex -2.56863 -16.1537 -10.025
      vertex -0.981129 -17.3071 -10.025
    endloop
  endfacet
  facet normal 0.58779 0.809014 0
    outer loop
      vertex -2.56863 -16.1537 -10.025
      vertex -0.981129 -17.3071 -15.875
      vertex -2.56863 -16.1537 -15.875
    endloop
  endfacet
  facet normal 0.951056 0.309019 0
    outer loop
      vertex -2.56863 -16.1537 -10.025
      vertex -3.175 -14.2875 -15.875
      vertex -3.175 -14.2875 -10.025
    endloop
  endfacet
  facet normal 0.951056 0.309019 0
    outer loop
      vertex -3.175 -14.2875 -15.875
      vertex -2.56863 -16.1537 -10.025
      vertex -2.56863 -16.1537 -15.875
    endloop
  endfacet
  facet normal -0.978148 -0.20791 0
    outer loop
      vertex 4.7625 -14.2875 -10.025
      vertex 4.35076 -12.3504 15.875
      vertex 4.35076 -12.3504 -10.025
    endloop
  endfacet
  facet normal -0.978148 -0.20791 0
    outer loop
      vertex 4.35076 -12.3504 15.875
      vertex 4.7625 -14.2875 -10.025
      vertex 4.7625 -14.2875 15.875
    endloop
  endfacet
  facet normal 1 -0 0
    outer loop
      vertex -4.65843 -15.2777 15.875
      vertex -4.65843 -13.2973 -10.025
      vertex -4.65843 -13.2973 15.875
    endloop
  endfacet
  facet normal 1 0 0
    outer loop
      vertex -4.65843 -13.2973 -10.025
      vertex -4.65843 -15.2777 15.875
      vertex -4.65843 -15.2777 -10.025
    endloop
  endfacet
  facet normal 0.309056 -0.951044 0
    outer loop
      vertex -2.38125 -10.1631 -10.025
      vertex -1.35 -9.82798 -2.33827
      vertex -2.38125 -10.1631 -1.10927
    endloop
  endfacet
  facet normal 0.309017 -0.951057 5.82786e-06
    outer loop
      vertex -2.38125 -10.1631 -10.025
      vertex -0.497816 -9.55109 -2.48853
      vertex -1.35 -9.82798 -2.33827
    endloop
  endfacet
  facet normal 0.309038 -0.95105 0
    outer loop
      vertex -0.497816 -9.55109 -2.48853
      vertex -2.38125 -10.1631 -10.025
      vertex -0.497816 -9.55109 -10.025
    endloop
  endfacet
  facet normal 0.309038 -0.95105 0
    outer loop
      vertex -2.38125 -10.1631 15.875
      vertex -0.497816 -9.55109 2.48853
      vertex -0.497816 -9.55109 15.875
    endloop
  endfacet
  facet normal 0.309016 -0.951057 -3.34269e-06
    outer loop
      vertex -2.38125 -10.1631 15.875
      vertex -1.35 -9.82798 2.33827
      vertex -0.497816 -9.55109 2.48853
    endloop
  endfacet
  facet normal 0.309056 -0.951044 0
    outer loop
      vertex -1.35 -9.82798 2.33827
      vertex -2.38125 -10.1631 15.875
      vertex -2.38125 -10.1631 1.10927
    endloop
  endfacet
  facet normal 0.669126 -0.743149 0
    outer loop
      vertex -3.85294 -11.4882 15.875
      vertex -2.38125 -10.1631 1.10927
      vertex -2.38125 -10.1631 15.875
    endloop
  endfacet
  facet normal 0.668916 -0.743338 -3.79456e-05
    outer loop
      vertex -3.85294 -11.4882 15.875
      vertex -2.53717 -10.3034 0.923454
      vertex -2.38125 -10.1631 1.10927
    endloop
  endfacet
  facet normal 0.669154 -0.743124 0
    outer loop
      vertex -3.85294 -11.4882 -10.025
      vertex -2.53717 -10.3034 0.923454
      vertex -3.85294 -11.4882 15.875
    endloop
  endfacet
  facet normal 0.669154 -0.743124 0
    outer loop
      vertex -2.53717 -10.3034 0.923454
      vertex -3.85294 -11.4882 -10.025
      vertex -2.53717 -10.3034 -0.923454
    endloop
  endfacet
  facet normal 0.66893 -0.743326 5.87497e-05
    outer loop
      vertex -3.85294 -11.4882 -10.025
      vertex -2.38125 -10.1631 -1.10927
      vertex -2.53717 -10.3034 -0.923454
    endloop
  endfacet
  facet normal 0.669126 -0.743149 0
    outer loop
      vertex -2.38125 -10.1631 -1.10927
      vertex -3.85294 -11.4882 -10.025
      vertex -2.38125 -10.1631 -10.025
    endloop
  endfacet
  facet normal 0 0 1
    outer loop
      vertex 3.175 -14.2875 -10.025
      vertex 4.7625 -14.2875 -10.025
      vertex 4.35076 -12.3504 -10.025
    endloop
  endfacet
  facet normal 0 0 1
    outer loop
      vertex 2.56863 -12.4213 -10.025
      vertex 4.35076 -12.3504 -10.025
      vertex 3.18673 -10.7483 -10.025
    endloop
  endfacet
  facet normal 0 0 1
    outer loop
      vertex 4.7625 -14.2875 -10.025
      vertex 3.175 -14.2875 -10.025
      vertex 4.35076 -16.2246 -10.025
    endloop
  endfacet
  facet normal -0 0 1
    outer loop
      vertex 2.56863 -16.1537 -10.025
      vertex 4.35076 -16.2246 -10.025
      vertex 3.175 -14.2875 -10.025
    endloop
  endfacet
  facet normal 0 0 1
    outer loop
      vertex 4.35076 -12.3504 -10.025
      vertex 2.56863 -12.4213 -10.025
      vertex 3.175 -14.2875 -10.025
    endloop
  endfacet
  facet normal 0 0 1
    outer loop
      vertex 0.981129 -11.2679 -10.025
      vertex 3.18673 -10.7483 -10.025
      vertex 1.47169 -9.75809 -10.025
    endloop
  endfacet
  facet normal 0 0 1
    outer loop
      vertex 3.18673 -10.7483 -10.025
      vertex 0.981129 -11.2679 -10.025
      vertex 2.56863 -12.4213 -10.025
    endloop
  endfacet
  facet normal 0 0 1
    outer loop
      vertex -0.497816 -9.55109 -10.025
      vertex 0.981129 -11.2679 -10.025
      vertex 1.47169 -9.75809 -10.025
    endloop
  endfacet
  facet normal 0 0 1
    outer loop
      vertex -0.497816 -9.55109 -10.025
      vertex -0.981129 -11.2679 -10.025
      vertex 0.981129 -11.2679 -10.025
    endloop
  endfacet
  facet normal -0 0 1
    outer loop
      vertex -2.38125 -10.1631 -10.025
      vertex -0.981129 -11.2679 -10.025
      vertex -0.497816 -9.55109 -10.025
    endloop
  endfacet
  facet normal 0 0 1
    outer loop
      vertex -2.38125 -10.1631 -10.025
      vertex -2.56863 -12.4213 -10.025
      vertex -0.981129 -11.2679 -10.025
    endloop
  endfacet
  facet normal -0 0 1
    outer loop
      vertex -3.85294 -11.4882 -10.025
      vertex -2.56863 -12.4213 -10.025
      vertex -2.38125 -10.1631 -10.025
    endloop
  endfacet
  facet normal 0 0 1
    outer loop
      vertex -4.65843 -13.2973 -10.025
      vertex -2.56863 -12.4213 -10.025
      vertex -3.85294 -11.4882 -10.025
    endloop
  endfacet
  facet normal 0 0 1
    outer loop
      vertex 4.35076 -16.2246 -10.025
      vertex 2.56863 -16.1537 -10.025
      vertex 3.18673 -17.8267 -10.025
    endloop
  endfacet
  facet normal -0 0 1
    outer loop
      vertex 0.981129 -17.3071 -10.025
      vertex 3.18673 -17.8267 -10.025
      vertex 2.56863 -16.1537 -10.025
    endloop
  endfacet
  facet normal 0 0 1
    outer loop
      vertex 3.18673 -17.8267 -10.025
      vertex 0.981129 -17.3071 -10.025
      vertex 1.47169 -18.8169 -10.025
    endloop
  endfacet
  facet normal 0 0 1
    outer loop
      vertex 0.981129 -17.3071 -10.025
      vertex -0.497816 -19.0239 -10.025
      vertex 1.47169 -18.8169 -10.025
    endloop
  endfacet
  facet normal -0 0 1
    outer loop
      vertex -0.981129 -17.3071 -10.025
      vertex -0.497816 -19.0239 -10.025
      vertex 0.981129 -17.3071 -10.025
    endloop
  endfacet
  facet normal 0 0 1
    outer loop
      vertex -0.981129 -17.3071 -10.025
      vertex -2.38125 -18.4119 -10.025
      vertex -0.497816 -19.0239 -10.025
    endloop
  endfacet
  facet normal 0 0 1
    outer loop
      vertex -2.56863 -16.1537 -10.025
      vertex -2.38125 -18.4119 -10.025
      vertex -0.981129 -17.3071 -10.025
    endloop
  endfacet
  facet normal -0 0 1
    outer loop
      vertex -4.65843 -15.2777 -10.025
      vertex -2.56863 -16.1537 -10.025
      vertex -3.175 -14.2875 -10.025
    endloop
  endfacet
  facet normal 0 0 1
    outer loop
      vertex -2.56863 -12.4213 -10.025
      vertex -4.65843 -13.2973 -10.025
      vertex -3.175 -14.2875 -10.025
    endloop
  endfacet
  facet normal 0 0 1
    outer loop
      vertex -2.56863 -16.1537 -10.025
      vertex -3.85294 -17.0868 -10.025
      vertex -2.38125 -18.4119 -10.025
    endloop
  endfacet
  facet normal 0 0 1
    outer loop
      vertex -4.65843 -15.2777 -10.025
      vertex -3.175 -14.2875 -10.025
      vertex -4.65843 -13.2973 -10.025
    endloop
  endfacet
  facet normal 0 0 1
    outer loop
      vertex -2.56863 -16.1537 -10.025
      vertex -4.65843 -15.2777 -10.025
      vertex -3.85294 -17.0868 -10.025
    endloop
  endfacet
  facet normal -0.500012 -0.866019 0
    outer loop
      vertex 1.47169 -9.75809 2.07999
      vertex 3.18673 -10.7483 15.875
      vertex 1.47169 -9.75809 15.875
    endloop
  endfacet
  facet normal -0.500047 -0.865998 5.83513e-06
    outer loop
      vertex 2.06832 -10.1026 1.73553
      vertex 3.18673 -10.7483 15.875
      vertex 1.47169 -9.75809 2.07999
    endloop
  endfacet
  facet normal -0.499998 -0.866027 6.65172e-07
    outer loop
      vertex 2.7 -10.4673 0
      vertex 3.18673 -10.7483 15.875
      vertex 2.06832 -10.1026 1.73553
    endloop
  endfacet
  facet normal -0.500012 -0.866019 0
    outer loop
      vertex 3.18673 -10.7483 -10.025
      vertex 1.47169 -9.75809 -2.07999
      vertex 1.47169 -9.75809 -10.025
    endloop
  endfacet
  facet normal -0.500045 -0.865999 -9.65549e-06
    outer loop
      vertex 1.47169 -9.75809 -2.07999
      vertex 3.18673 -10.7483 -10.025
      vertex 2.06832 -10.1026 -1.73553
    endloop
  endfacet
  facet normal -0.499982 -0.866036 0
    outer loop
      vertex 2.7 -10.4673 0
      vertex 3.18673 -10.7483 -10.025
      vertex 3.18673 -10.7483 15.875
    endloop
  endfacet
  facet normal -0.499997 -0.866027 -1.00764e-06
    outer loop
      vertex 2.06832 -10.1026 -1.73553
      vertex 3.18673 -10.7483 -10.025
      vertex 2.7 -10.4673 0
    endloop
  endfacet
  facet normal -0.809008 -0.587797 0
    outer loop
      vertex 4.35076 -12.3504 -10.025
      vertex 3.18673 -10.7483 15.875
      vertex 3.18673 -10.7483 -10.025
    endloop
  endfacet
  facet normal -0.809008 -0.587797 0
    outer loop
      vertex 3.18673 -10.7483 15.875
      vertex 4.35076 -12.3504 -10.025
      vertex 4.35076 -12.3504 15.875
    endloop
  endfacet
  facet normal -0.104528 -0.994522 -0
    outer loop
      vertex -0.497816 -9.55109 -2.48853
      vertex -0.497816 -9.55109 -10.025
      vertex 0.468849 -9.65269 -2.65898
    endloop
  endfacet
  facet normal -0.104527 -0.994522 -1.47704e-07
    outer loop
      vertex 1.47169 -9.75809 -10.025
      vertex 0.468849 -9.65269 -2.65898
      vertex -0.497816 -9.55109 -10.025
    endloop
  endfacet
  facet normal -0.104526 -0.994522 0
    outer loop
      vertex 0.468849 -9.65269 -2.65898
      vertex 1.47169 -9.75809 -10.025
      vertex 1.47169 -9.75809 -2.07999
    endloop
  endfacet
  facet normal -0.104527 -0.994522 8.23234e-08
    outer loop
      vertex -0.497816 -9.55109 15.875
      vertex 0.468849 -9.65269 2.65898
      vertex 1.47169 -9.75809 15.875
    endloop
  endfacet
  facet normal -0.104528 -0.994522 0
    outer loop
      vertex 0.468849 -9.65269 2.65898
      vertex -0.497816 -9.55109 15.875
      vertex -0.497816 -9.55109 2.48853
    endloop
  endfacet
  facet normal -0.104526 -0.994522 -0
    outer loop
      vertex 1.47169 -9.75809 15.875
      vertex 0.468849 -9.65269 2.65898
      vertex 1.47169 -9.75809 2.07999
    endloop
  endfacet
  facet normal 0.91354 -0.406748 0
    outer loop
      vertex -4.65843 -13.2973 15.875
      vertex -3.85294 -11.4882 -10.025
      vertex -3.85294 -11.4882 15.875
    endloop
  endfacet
  facet normal 0.91354 -0.406748 0
    outer loop
      vertex -3.85294 -11.4882 -10.025
      vertex -4.65843 -13.2973 15.875
      vertex -4.65843 -13.2973 -10.025
    endloop
  endfacet
  facet normal -0.978148 0.20791 0
    outer loop
      vertex 4.35076 -16.2246 -10.025
      vertex 4.7625 -14.2875 15.875
      vertex 4.7625 -14.2875 -10.025
    endloop
  endfacet
  facet normal -0.978148 0.20791 0
    outer loop
      vertex 4.7625 -14.2875 15.875
      vertex 4.35076 -16.2246 -10.025
      vertex 4.35076 -16.2246 15.875
    endloop
  endfacet
  facet normal 0.309033 0.951051 -0
    outer loop
      vertex -0.497816 -19.0239 -10.025
      vertex -2.38125 -18.4119 15.875
      vertex -0.497816 -19.0239 15.875
    endloop
  endfacet
  facet normal 0.309033 0.951051 0
    outer loop
      vertex -2.38125 -18.4119 15.875
      vertex -0.497816 -19.0239 -10.025
      vertex -2.38125 -18.4119 -10.025
    endloop
  endfacet
  facet normal 0.91354 0.406748 0
    outer loop
      vertex -3.85294 -17.0868 15.875
      vertex -4.65843 -15.2777 -10.025
      vertex -4.65843 -15.2777 15.875
    endloop
  endfacet
  facet normal 0.91354 0.406748 0
    outer loop
      vertex -4.65843 -15.2777 -10.025
      vertex -3.85294 -17.0868 15.875
      vertex -3.85294 -17.0868 -10.025
    endloop
  endfacet
  facet normal -0.809008 0.587797 0
    outer loop
      vertex 3.18673 -17.8267 -10.025
      vertex 4.35076 -16.2246 15.875
      vertex 4.35076 -16.2246 -10.025
    endloop
  endfacet
  facet normal -0.809008 0.587797 0
    outer loop
      vertex 4.35076 -16.2246 15.875
      vertex 3.18673 -17.8267 -10.025
      vertex 3.18673 -17.8267 15.875
    endloop
  endfacet
  facet normal -0.500008 0.866021 0
    outer loop
      vertex 3.18673 -17.8267 -10.025
      vertex 1.47169 -18.8169 15.875
      vertex 3.18673 -17.8267 15.875
    endloop
  endfacet
  facet normal -0.500008 0.866021 0
    outer loop
      vertex 1.47169 -18.8169 15.875
      vertex 3.18673 -17.8267 -10.025
      vertex 1.47169 -18.8169 -10.025
    endloop
  endfacet
  facet normal -0.104527 0.994522 0
    outer loop
      vertex 1.47169 -18.8169 -10.025
      vertex -0.497816 -19.0239 15.875
      vertex 1.47169 -18.8169 15.875
    endloop
  endfacet
  facet normal -0.104527 0.994522 0
    outer loop
      vertex -0.497816 -19.0239 15.875
      vertex 1.47169 -18.8169 -10.025
      vertex -0.497816 -19.0239 -10.025
    endloop
  endfacet
  facet normal 0.669126 0.743149 -0
    outer loop
      vertex -2.38125 -18.4119 -10.025
      vertex -3.85294 -17.0868 15.875
      vertex -2.38125 -18.4119 15.875
    endloop
  endfacet
  facet normal 0.669126 0.743149 0
    outer loop
      vertex -3.85294 -17.0868 15.875
      vertex -2.38125 -18.4119 -10.025
      vertex -3.85294 -17.0868 -10.025
    endloop
  endfacet
  facet normal 0 0 -1
    outer loop
      vertex 19.05 -14.2875 -15.875
      vertex 4.7625 0 -15.875
      vertex 19.05 0 -15.875
    endloop
  endfacet
  facet normal 0 0 -1
    outer loop
      vertex 19.05 -14.2875 -15.875
      vertex 2.56863 -12.4213 -15.875
      vertex 4.7625 0 -15.875
    endloop
  endfacet
  facet normal 0 0 -1
    outer loop
      vertex 2.56863 -12.4213 -15.875
      vertex 19.05 -14.2875 -15.875
      vertex 3.175 -14.2875 -15.875
    endloop
  endfacet
  facet normal -0 0 -1
    outer loop
      vertex 19.05 -14.2875 -15.875
      vertex 2.56863 -16.1537 -15.875
      vertex 3.175 -14.2875 -15.875
    endloop
  endfacet
  facet normal 0 0 -1
    outer loop
      vertex 0.0154419 -25.4475 -15.875
      vertex 2.56863 -16.1537 -15.875
      vertex 19.05 -14.2875 -15.875
    endloop
  endfacet
  facet normal 0 0 -1
    outer loop
      vertex 2.56863 -16.1537 -15.875
      vertex 0.0154419 -25.4475 -15.875
      vertex 0.981129 -17.3071 -15.875
    endloop
  endfacet
  facet normal 0 0 -1
    outer loop
      vertex -0.0404358 -25.4294 -15.875
      vertex 0.981129 -17.3071 -15.875
      vertex 0.0154419 -25.4475 -15.875
    endloop
  endfacet
  facet normal 0 0 -1
    outer loop
      vertex -0.0404358 -25.4294 -15.875
      vertex -0.981129 -17.3071 -15.875
      vertex 0.981129 -17.3071 -15.875
    endloop
  endfacet
  facet normal 0 0 -1
    outer loop
      vertex -0.0404358 -25.4294 -15.875
      vertex -2.56863 -16.1537 -15.875
      vertex -0.981129 -17.3071 -15.875
    endloop
  endfacet
  facet normal 0 0 -1
    outer loop
      vertex -19.05 -14.2875 -15.875
      vertex -2.56863 -16.1537 -15.875
      vertex -0.0404358 -25.4294 -15.875
    endloop
  endfacet
  facet normal 0 0 -1
    outer loop
      vertex -2.56863 -16.1537 -15.875
      vertex -19.05 -14.2875 -15.875
      vertex -3.175 -14.2875 -15.875
    endloop
  endfacet
  facet normal -0 0 -1
    outer loop
      vertex -2.56863 -12.4213 -15.875
      vertex -19.05 -14.2875 -15.875
      vertex -4.7625 0 -15.875
    endloop
  endfacet
  facet normal -0 0 -1
    outer loop
      vertex -4.7625 0 -15.875
      vertex -19.05 -14.2875 -15.875
      vertex -19.05 0 -15.875
    endloop
  endfacet
  facet normal 0 0 -1
    outer loop
      vertex 0.981129 -11.2679 -15.875
      vertex 4.7625 0 -15.875
      vertex 2.56863 -12.4213 -15.875
    endloop
  endfacet
  facet normal 0 0 -1
    outer loop
      vertex -4.7625 0 -15.875
      vertex 4.7625 0 -15.875
      vertex 0.981129 -11.2679 -15.875
    endloop
  endfacet
  facet normal 0 0 -1
    outer loop
      vertex -4.7625 0 -15.875
      vertex 0.981129 -11.2679 -15.875
      vertex -0.981129 -11.2679 -15.875
    endloop
  endfacet
  facet normal 0 0 -1
    outer loop
      vertex -4.7625 0 -15.875
      vertex -0.981129 -11.2679 -15.875
      vertex -2.56863 -12.4213 -15.875
    endloop
  endfacet
  facet normal 0 0 -1
    outer loop
      vertex -19.05 -14.2875 -15.875
      vertex -2.56863 -12.4213 -15.875
      vertex -3.175 -14.2875 -15.875
    endloop
  endfacet
  facet normal 0 0 -1
    outer loop
      vertex 4.7625 0 -15.875
      vertex -4.7625 0 -15.875
      vertex 4.7625 4.7625 -15.875
    endloop
  endfacet
  facet normal -0 0 -1
    outer loop
      vertex 4.7625 4.7625 -15.875
      vertex -4.7625 0 -15.875
      vertex -4.7625 4.7625 -15.875
    endloop
  endfacet
  facet normal 0 0 1
    outer loop
      vertex -4.7625 0 15.875
      vertex 4.7625 0 15.875
      vertex 4.7625 4.7625 15.875
    endloop
  endfacet
  facet normal 0 0 1
    outer loop
      vertex 4.7625 0 15.875
      vertex 3.18673 -10.7483 15.875
      vertex 4.35076 -12.3504 15.875
    endloop
  endfacet
  facet normal 0 0 1
    outer loop
      vertex 4.7625 0 15.875
      vertex 1.47169 -9.75809 15.875
      vertex 3.18673 -10.7483 15.875
    endloop
  endfacet
  facet normal 0 -0 1
    outer loop
      vertex -0.497816 -9.55109 15.875
      vertex 4.7625 0 15.875
      vertex -4.7625 0 15.875
    endloop
  endfacet
  facet normal 0 0 1
    outer loop
      vertex 4.7625 0 15.875
      vertex -0.497816 -9.55109 15.875
      vertex 1.47169 -9.75809 15.875
    endloop
  endfacet
  facet normal 0 0 1
    outer loop
      vertex -0.497816 -9.55109 15.875
      vertex -4.7625 0 15.875
      vertex -2.38125 -10.1631 15.875
    endloop
  endfacet
  facet normal -0 0 1
    outer loop
      vertex -19.05 0 15.875
      vertex -3.85294 -11.4882 15.875
      vertex -4.7625 0 15.875
    endloop
  endfacet
  facet normal 0 0 1
    outer loop
      vertex -2.38125 -10.1631 15.875
      vertex -4.7625 0 15.875
      vertex -3.85294 -11.4882 15.875
    endloop
  endfacet
  facet normal 0 0 1
    outer loop
      vertex -4.7625 0 15.875
      vertex 4.7625 4.7625 15.875
      vertex -4.7625 4.7625 15.875
    endloop
  endfacet
  facet normal -0 0 1
    outer loop
      vertex 4.35076 -12.3504 15.875
      vertex 19.05 -14.2875 15.875
      vertex 19.05 0 15.875
    endloop
  endfacet
  facet normal 0 0 1
    outer loop
      vertex 4.35076 -12.3504 15.875
      vertex 19.05 0 15.875
      vertex 4.7625 0 15.875
    endloop
  endfacet
  facet normal 0 0 1
    outer loop
      vertex 19.05 -14.2875 15.875
      vertex 4.35076 -12.3504 15.875
      vertex 4.7625 -14.2875 15.875
    endloop
  endfacet
  facet normal 0 0 1
    outer loop
      vertex 4.35076 -16.2246 15.875
      vertex 19.05 -14.2875 15.875
      vertex 4.7625 -14.2875 15.875
    endloop
  endfacet
  facet normal 0 0 1
    outer loop
      vertex 3.18673 -17.8267 15.875
      vertex 19.05 -14.2875 15.875
      vertex 4.35076 -16.2246 15.875
    endloop
  endfacet
  facet normal 0 0 1
    outer loop
      vertex 0.0154419 -25.4475 15.875
      vertex 3.18673 -17.8267 15.875
      vertex 1.47169 -18.8169 15.875
    endloop
  endfacet
  facet normal -0 0 1
    outer loop
      vertex 3.18673 -17.8267 15.875
      vertex 0.0154419 -25.4475 15.875
      vertex 19.05 -14.2875 15.875
    endloop
  endfacet
  facet normal 0 0 1
    outer loop
      vertex 1.47169 -18.8169 15.875
      vertex -0.0404358 -25.4294 15.875
      vertex 0.0154419 -25.4475 15.875
    endloop
  endfacet
  facet normal -0 0 1
    outer loop
      vertex -0.497816 -19.0239 15.875
      vertex -0.0404358 -25.4294 15.875
      vertex 1.47169 -18.8169 15.875
    endloop
  endfacet
  facet normal 0 0 1
    outer loop
      vertex -2.38125 -18.4119 15.875
      vertex -0.0404358 -25.4294 15.875
      vertex -0.497816 -19.0239 15.875
    endloop
  endfacet
  facet normal 0 0 1
    outer loop
      vertex -3.85294 -17.0868 15.875
      vertex -0.0404358 -25.4294 15.875
      vertex -2.38125 -18.4119 15.875
    endloop
  endfacet
  facet normal 0 0 1
    outer loop
      vertex -19.05 -14.2875 15.875
      vertex -3.85294 -11.4882 15.875
      vertex -19.05 0 15.875
    endloop
  endfacet
  facet normal 0 0 1
    outer loop
      vertex -3.85294 -11.4882 15.875
      vertex -19.05 -14.2875 15.875
      vertex -4.65843 -13.2973 15.875
    endloop
  endfacet
  facet normal 0 0 1
    outer loop
      vertex -4.65843 -13.2973 15.875
      vertex -19.05 -14.2875 15.875
      vertex -4.65843 -15.2777 15.875
    endloop
  endfacet
  facet normal 0 0 1
    outer loop
      vertex -4.65843 -15.2777 15.875
      vertex -19.05 -14.2875 15.875
      vertex -3.85294 -17.0868 15.875
    endloop
  endfacet
  facet normal 0 0 1
    outer loop
      vertex -3.85294 -17.0868 15.875
      vertex -19.05 -14.2875 15.875
      vertex -0.0404358 -25.4294 15.875
    endloop
  endfacet
  facet normal -0.505664 -0.86273 0
    outer loop
      vertex -19.05 -14.2875 -15.875
      vertex -0.0404358 -25.4294 15.875
      vertex -19.05 -14.2875 15.875
    endloop
  endfacet
  facet normal -0.505664 -0.86273 -0
    outer loop
      vertex -0.0404358 -25.4294 15.875
      vertex -19.05 -14.2875 -15.875
      vertex -0.0404358 -25.4294 -15.875
    endloop
  endfacet
  facet normal -0.308158 -0.951335 0
    outer loop
      vertex -0.0404358 -25.4294 -15.875
      vertex 0.0154419 -25.4475 15.875
      vertex -0.0404358 -25.4294 15.875
    endloop
  endfacet
  facet normal -0.308158 -0.951335 -0
    outer loop
      vertex 0.0154419 -25.4475 15.875
      vertex -0.0404358 -25.4294 -15.875
      vertex 0.0154419 -25.4475 -15.875
    endloop
  endfacet
  facet normal 0.505781 -0.862662 0
    outer loop
      vertex 0.0154419 -25.4475 -15.875
      vertex 19.05 -14.2875 15.875
      vertex 0.0154419 -25.4475 15.875
    endloop
  endfacet
  facet normal 0.505781 -0.862662 0
    outer loop
      vertex 19.05 -14.2875 15.875
      vertex 0.0154419 -25.4475 -15.875
      vertex 19.05 -14.2875 -15.875
    endloop
  endfacet
  facet normal 1 -0 0
    outer loop
      vertex 19.05 -14.2875 15.875
      vertex 19.05 0 -15.875
      vertex 19.05 0 15.875
    endloop
  endfacet
  facet normal 1 0 0
    outer loop
      vertex 19.05 0 -15.875
      vertex 19.05 -14.2875 15.875
      vertex 19.05 -14.2875 -15.875
    endloop
  endfacet
  facet normal 0 1 -0
    outer loop
      vertex 19.05 0 -15.875
      vertex 4.7625 0 15.875
      vertex 19.05 0 15.875
    endloop
  endfacet
  facet normal 0 1 0
    outer loop
      vertex 4.7625 0 15.875
      vertex 19.05 0 -15.875
      vertex 4.7625 0 -15.875
    endloop
  endfacet
  facet normal 1 -0 0
    outer loop
      vertex 4.7625 0 15.875
      vertex 4.7625 4.7625 -15.875
      vertex 4.7625 4.7625 15.875
    endloop
  endfacet
  facet normal 1 0 0
    outer loop
      vertex 4.7625 4.7625 -15.875
      vertex 4.7625 0 15.875
      vertex 4.7625 0 -15.875
    endloop
  endfacet
  facet normal 0 1 0
    outer loop
      vertex 4.7625 4.7625 15.875
      vertex 0.468849 4.7625 2.65898
      vertex -4.7625 4.7625 15.875
    endloop
  endfacet
  facet normal 0 1 0
    outer loop
      vertex 4.7625 4.7625 15.875
      vertex 2.06832 4.7625 1.73553
      vertex 0.468849 4.7625 2.65898
    endloop
  endfacet
  facet normal 0 1 0
    outer loop
      vertex 4.7625 4.7625 15.875
      vertex 2.7 4.7625 0
      vertex 2.06832 4.7625 1.73553
    endloop
  endfacet
  facet normal 0 1 0
    outer loop
      vertex 2.06832 4.7625 -1.73553
      vertex 4.7625 4.7625 -15.875
      vertex 0.468849 4.7625 -2.65898
    endloop
  endfacet
  facet normal 0 1 0
    outer loop
      vertex 2.7 4.7625 0
      vertex 4.7625 4.7625 -15.875
      vertex 2.06832 4.7625 -1.73553
    endloop
  endfacet
  facet normal 0 1 -0
    outer loop
      vertex 4.7625 4.7625 -15.875
      vertex 2.7 4.7625 0
      vertex 4.7625 4.7625 15.875
    endloop
  endfacet
  facet normal 0 1 -0
    outer loop
      vertex -1.35 4.7625 2.33827
      vertex -4.7625 4.7625 15.875
      vertex 0.468849 4.7625 2.65898
    endloop
  endfacet
  facet normal 0 1 -0
    outer loop
      vertex -2.53717 4.7625 0.923454
      vertex -4.7625 4.7625 15.875
      vertex -1.35 4.7625 2.33827
    endloop
  endfacet
  facet normal 0 1 -0
    outer loop
      vertex -2.53717 4.7625 -0.923454
      vertex -4.7625 4.7625 15.875
      vertex -2.53717 4.7625 0.923454
    endloop
  endfacet
  facet normal 0 1 0
    outer loop
      vertex -4.7625 4.7625 -15.875
      vertex 0.468849 4.7625 -2.65898
      vertex 4.7625 4.7625 -15.875
    endloop
  endfacet
  facet normal 0 1 0
    outer loop
      vertex 0.468849 4.7625 -2.65898
      vertex -4.7625 4.7625 -15.875
      vertex -1.35 4.7625 -2.33827
    endloop
  endfacet
  facet normal 0 1 0
    outer loop
      vertex -2.53717 4.7625 -0.923454
      vertex -4.7625 4.7625 -15.875
      vertex -4.7625 4.7625 15.875
    endloop
  endfacet
  facet normal 0 1 0
    outer loop
      vertex -1.35 4.7625 -2.33827
      vertex -4.7625 4.7625 -15.875
      vertex -2.53717 4.7625 -0.923454
    endloop
  endfacet
  facet normal -1 0 0
    outer loop
      vertex -4.7625 0 -15.875
      vertex -4.7625 4.7625 15.875
      vertex -4.7625 4.7625 -15.875
    endloop
  endfacet
  facet normal -1 -0 0
    outer loop
      vertex -4.7625 4.7625 15.875
      vertex -4.7625 0 -15.875
      vertex -4.7625 0 15.875
    endloop
  endfacet
  facet normal 0 1 -0
    outer loop
      vertex -4.7625 0 -15.875
      vertex -19.05 0 15.875
      vertex -4.7625 0 15.875
    endloop
  endfacet
  facet normal 0 1 0
    outer loop
      vertex -19.05 0 15.875
      vertex -4.7625 0 -15.875
      vertex -19.05 0 -15.875
    endloop
  endfacet
  facet normal -1 0 0
    outer loop
      vertex -19.05 -14.2875 -15.875
      vertex -19.05 0 15.875
      vertex -19.05 0 -15.875
    endloop
  endfacet
  facet normal -1 -0 0
    outer loop
      vertex -19.05 0 15.875
      vertex -19.05 -14.2875 -15.875
      vertex -19.05 -14.2875 15.875
    endloop
  endfacet
  facet normal -0.939693 0 -0.34202
    outer loop
      vertex 2.7 4.7625 0
      vertex 2.06832 -10.1026 1.73553
      vertex 2.06832 4.7625 1.73553
    endloop
  endfacet
  facet normal -0.939693 0 -0.34202
    outer loop
      vertex 2.06832 -10.1026 1.73553
      vertex 2.7 4.7625 0
      vertex 2.7 -10.4673 0
    endloop
  endfacet
  facet normal -0.499995 0 -0.866028
    outer loop
      vertex 1.47169 -9.75809 2.07999
      vertex 2.06832 4.7625 1.73553
      vertex 2.06832 -10.1026 1.73553
    endloop
  endfacet
  facet normal -0.5 2.48285e-07 -0.866026
    outer loop
      vertex 0.468849 -9.65269 2.65898
      vertex 2.06832 4.7625 1.73553
      vertex 1.47169 -9.75809 2.07999
    endloop
  endfacet
  facet normal -0.499998 0 -0.866027
    outer loop
      vertex 2.06832 4.7625 1.73553
      vertex 0.468849 -9.65269 2.65898
      vertex 0.468849 4.7625 2.65898
    endloop
  endfacet
  facet normal 1 -0 0
    outer loop
      vertex -2.53717 -10.3034 0.923454
      vertex -2.53717 4.7625 -0.923454
      vertex -2.53717 4.7625 0.923454
    endloop
  endfacet
  facet normal 1 0 0
    outer loop
      vertex -2.53717 4.7625 -0.923454
      vertex -2.53717 -10.3034 0.923454
      vertex -2.53717 -10.3034 -0.923454
    endloop
  endfacet
  facet normal 0.173649 0 -0.984808
    outer loop
      vertex -0.497816 -9.55109 2.48853
      vertex 0.468849 4.7625 2.65898
      vertex 0.468849 -9.65269 2.65898
    endloop
  endfacet
  facet normal 0.173645 0 -0.984808
    outer loop
      vertex -1.35 4.7625 2.33827
      vertex -0.497816 -9.55109 2.48853
      vertex -1.35 -9.82798 2.33827
    endloop
  endfacet
  facet normal 0.173647 1.39201e-07 -0.984808
    outer loop
      vertex -0.497816 -9.55109 2.48853
      vertex -1.35 4.7625 2.33827
      vertex 0.468849 4.7625 2.65898
    endloop
  endfacet
  facet normal 0.766045 0 -0.642787
    outer loop
      vertex -1.35 -9.82798 2.33827
      vertex -2.53717 4.7625 0.923454
      vertex -1.35 4.7625 2.33827
    endloop
  endfacet
  facet normal 0.766045 1.21946e-07 -0.642786
    outer loop
      vertex -2.38125 -10.1631 1.10927
      vertex -2.53717 4.7625 0.923454
      vertex -1.35 -9.82798 2.33827
    endloop
  endfacet
  facet normal 0.766041 0 -0.642792
    outer loop
      vertex -2.53717 4.7625 0.923454
      vertex -2.38125 -10.1631 1.10927
      vertex -2.53717 -10.3034 0.923454
    endloop
  endfacet
  facet normal 0.766045 0 0.642787
    outer loop
      vertex -2.53717 4.7625 -0.923454
      vertex -1.35 -9.82798 -2.33827
      vertex -1.35 4.7625 -2.33827
    endloop
  endfacet
  facet normal 0.766045 1.21946e-07 0.642786
    outer loop
      vertex -2.53717 4.7625 -0.923454
      vertex -2.38125 -10.1631 -1.10927
      vertex -1.35 -9.82798 -2.33827
    endloop
  endfacet
  facet normal 0.766041 0 0.642792
    outer loop
      vertex -2.38125 -10.1631 -1.10927
      vertex -2.53717 4.7625 -0.923454
      vertex -2.53717 -10.3034 -0.923454
    endloop
  endfacet
  facet normal -0.499995 0 0.866028
    outer loop
      vertex 2.06832 4.7625 -1.73553
      vertex 1.47169 -9.75809 -2.07999
      vertex 2.06832 -10.1026 -1.73553
    endloop
  endfacet
  facet normal -0.499998 0 0.866027
    outer loop
      vertex 0.468849 -9.65269 -2.65898
      vertex 2.06832 4.7625 -1.73553
      vertex 0.468849 4.7625 -2.65898
    endloop
  endfacet
  facet normal -0.5 2.48285e-07 0.866026
    outer loop
      vertex 2.06832 4.7625 -1.73553
      vertex 0.468849 -9.65269 -2.65898
      vertex 1.47169 -9.75809 -2.07999
    endloop
  endfacet
  facet normal -0.939693 0 0.34202
    outer loop
      vertex 2.06832 -10.1026 -1.73553
      vertex 2.7 4.7625 0
      vertex 2.06832 4.7625 -1.73553
    endloop
  endfacet
  facet normal -0.939693 0 0.34202
    outer loop
      vertex 2.7 4.7625 0
      vertex 2.06832 -10.1026 -1.73553
      vertex 2.7 -10.4673 0
    endloop
  endfacet
  facet normal 0.173649 0 0.984808
    outer loop
      vertex 0.468849 4.7625 -2.65898
      vertex -0.497816 -9.55109 -2.48853
      vertex 0.468849 -9.65269 -2.65898
    endloop
  endfacet
  facet normal 0.173647 1.39201e-07 0.984808
    outer loop
      vertex -1.35 4.7625 -2.33827
      vertex -0.497816 -9.55109 -2.48853
      vertex 0.468849 4.7625 -2.65898
    endloop
  endfacet
  facet normal 0.173645 0 0.984808
    outer loop
      vertex -0.497816 -9.55109 -2.48853
      vertex -1.35 4.7625 -2.33827
      vertex -1.35 -9.82798 -2.33827
    endloop
  endfacet
endsolid OpenSCAD_Model
