solid OpenSCAD_Model
  facet normal 0.994522 0.104526 0
    outer loop
      vertex 15.875 0 2.38125
      vertex 15.5281 3.3006 -2.38125
      vertex 15.5281 3.3006 2.38125
    endloop
  endfacet
  facet normal 0.994522 0.104526 0
    outer loop
      vertex 15.5281 3.3006 -2.38125
      vertex 15.875 0 2.38125
      vertex 15.875 0 -2.38125
    endloop
  endfacet
  facet normal -0.994522 0.104526 0
    outer loop
      vertex -15.875 0 -2.38125
      vertex -15.5281 3.3006 2.38125
      vertex -15.5281 3.3006 -2.38125
    endloop
  endfacet
  facet normal -0.994522 0.104526 0
    outer loop
      vertex -15.5281 3.3006 2.38125
      vertex -15.875 0 -2.38125
      vertex -15.875 0 2.38125
    endloop
  endfacet
  facet normal 0 1 -0
    outer loop
      vertex 1.65939 15.788 -2.38125
      vertex -1.65939 15.788 2.38125
      vertex 1.65939 15.788 2.38125
    endloop
  endfacet
  facet normal 0 1 0
    outer loop
      vertex -1.65939 15.788 2.38125
      vertex 1.65939 15.788 -2.38125
      vertex -1.65939 15.788 -2.38125
    endloop
  endfacet
  facet normal 0 -1 0
    outer loop
      vertex -1.65939 -15.788 -2.38125
      vertex 1.65939 -15.788 2.38125
      vertex -1.65939 -15.788 2.38125
    endloop
  endfacet
  facet normal 0 -1 -0
    outer loop
      vertex 1.65939 -15.788 2.38125
      vertex -1.65939 -15.788 -2.38125
      vertex 1.65939 -15.788 -2.38125
    endloop
  endfacet
  facet normal 0.587806 0.809002 -0
    outer loop
      vertex 10.6224 11.7974 -2.38125
      vertex 7.9375 13.7482 2.38125
      vertex 10.6224 11.7974 2.38125
    endloop
  endfacet
  facet normal 0.587806 0.809002 0
    outer loop
      vertex 7.9375 13.7482 2.38125
      vertex 10.6224 11.7974 -2.38125
      vertex 7.9375 13.7482 -2.38125
    endloop
  endfacet
  facet normal 0.406719 0.913553 -0
    outer loop
      vertex 7.9375 13.7482 -2.38125
      vertex 4.90564 15.098 2.38125
      vertex 7.9375 13.7482 2.38125
    endloop
  endfacet
  facet normal 0.406719 0.913553 0
    outer loop
      vertex 4.90564 15.098 2.38125
      vertex 7.9375 13.7482 -2.38125
      vertex 4.90564 15.098 -2.38125
    endloop
  endfacet
  facet normal -0.587806 0.809002 0
    outer loop
      vertex -7.9375 13.7482 -2.38125
      vertex -10.6224 11.7974 2.38125
      vertex -7.9375 13.7482 2.38125
    endloop
  endfacet
  facet normal -0.587806 0.809002 0
    outer loop
      vertex -10.6224 11.7974 2.38125
      vertex -7.9375 13.7482 -2.38125
      vertex -10.6224 11.7974 -2.38125
    endloop
  endfacet
  facet normal -0.406719 0.913553 0
    outer loop
      vertex -4.90564 15.098 -2.38125
      vertex -7.9375 13.7482 2.38125
      vertex -4.90564 15.098 2.38125
    endloop
  endfacet
  facet normal -0.406719 0.913553 0
    outer loop
      vertex -7.9375 13.7482 2.38125
      vertex -4.90564 15.098 -2.38125
      vertex -7.9375 13.7482 -2.38125
    endloop
  endfacet
  facet normal 0.866024 0.500002 0
    outer loop
      vertex 14.5025 6.45694 2.38125
      vertex 12.8431 9.33109 -2.38125
      vertex 12.8431 9.33109 2.38125
    endloop
  endfacet
  facet normal 0.866024 0.500002 0
    outer loop
      vertex 12.8431 9.33109 -2.38125
      vertex 14.5025 6.45694 2.38125
      vertex 14.5025 6.45694 -2.38125
    endloop
  endfacet
  facet normal 0.951053 0.309029 0
    outer loop
      vertex 15.5281 3.3006 2.38125
      vertex 14.5025 6.45694 -2.38125
      vertex 14.5025 6.45694 2.38125
    endloop
  endfacet
  facet normal 0.951053 0.309029 0
    outer loop
      vertex 14.5025 6.45694 -2.38125
      vertex 15.5281 3.3006 2.38125
      vertex 15.5281 3.3006 -2.38125
    endloop
  endfacet
  facet normal 0.743141 0.669135 0
    outer loop
      vertex 12.8431 9.33109 2.38125
      vertex 10.6224 11.7974 -2.38125
      vertex 10.6224 11.7974 2.38125
    endloop
  endfacet
  facet normal 0.743141 0.669135 0
    outer loop
      vertex 10.6224 11.7974 -2.38125
      vertex 12.8431 9.33109 2.38125
      vertex 12.8431 9.33109 -2.38125
    endloop
  endfacet
  facet normal 0.207908 0.978148 -0
    outer loop
      vertex 4.90564 15.098 -2.38125
      vertex 1.65939 15.788 2.38125
      vertex 4.90564 15.098 2.38125
    endloop
  endfacet
  facet normal 0.207908 0.978148 0
    outer loop
      vertex 1.65939 15.788 2.38125
      vertex 4.90564 15.098 -2.38125
      vertex 1.65939 15.788 -2.38125
    endloop
  endfacet
  facet normal -0.866024 0.500002 0
    outer loop
      vertex -14.5025 6.45694 -2.38125
      vertex -12.8431 9.33109 2.38125
      vertex -12.8431 9.33109 -2.38125
    endloop
  endfacet
  facet normal -0.866024 0.500002 0
    outer loop
      vertex -12.8431 9.33109 2.38125
      vertex -14.5025 6.45694 -2.38125
      vertex -14.5025 6.45694 2.38125
    endloop
  endfacet
  facet normal -0.743141 0.669135 0
    outer loop
      vertex -12.8431 9.33109 -2.38125
      vertex -10.6224 11.7974 2.38125
      vertex -10.6224 11.7974 -2.38125
    endloop
  endfacet
  facet normal -0.743141 0.669135 0
    outer loop
      vertex -10.6224 11.7974 2.38125
      vertex -12.8431 9.33109 -2.38125
      vertex -12.8431 9.33109 2.38125
    endloop
  endfacet
  facet normal -0.951053 0.309029 0
    outer loop
      vertex -15.5281 3.3006 -2.38125
      vertex -14.5025 6.45694 2.38125
      vertex -14.5025 6.45694 -2.38125
    endloop
  endfacet
  facet normal -0.951053 0.309029 0
    outer loop
      vertex -14.5025 6.45694 2.38125
      vertex -15.5281 3.3006 -2.38125
      vertex -15.5281 3.3006 2.38125
    endloop
  endfacet
  facet normal 0 0 1
    outer loop
      vertex 3.37344 0 2.38125
      vertex 15.875 0 2.38125
      vertex 15.5281 3.3006 2.38125
    endloop
  endfacet
  facet normal 0 0 1
    outer loop
      vertex 2.83792 1.82382 2.38125
      vertex 15.5281 3.3006 2.38125
      vertex 14.5025 6.45694 2.38125
    endloop
  endfacet
  facet normal 0 0 1
    outer loop
      vertex 15.875 0 2.38125
      vertex 3.37344 0 2.38125
      vertex 15.5281 -3.3006 2.38125
    endloop
  endfacet
  facet normal 0 0 1
    outer loop
      vertex 2.83792 1.82382 2.38125
      vertex 14.5025 6.45694 2.38125
      vertex 12.8431 9.33109 2.38125
    endloop
  endfacet
  facet normal -0 0 1
    outer loop
      vertex 2.83792 -1.82382 2.38125
      vertex 15.5281 -3.3006 2.38125
      vertex 3.37344 0 2.38125
    endloop
  endfacet
  facet normal 0 0 1
    outer loop
      vertex 2.83792 1.82382 2.38125
      vertex 12.8431 9.33109 2.38125
      vertex 10.6224 11.7974 2.38125
    endloop
  endfacet
  facet normal 0 0 1
    outer loop
      vertex 15.5281 -3.3006 2.38125
      vertex 2.83792 -1.82382 2.38125
      vertex 14.5025 -6.45694 2.38125
    endloop
  endfacet
  facet normal 0 0 1
    outer loop
      vertex 1.40138 3.06859 2.38125
      vertex 10.6224 11.7974 2.38125
      vertex 7.9375 13.7482 2.38125
    endloop
  endfacet
  facet normal 0 0 1
    outer loop
      vertex 14.5025 -6.45694 2.38125
      vertex 2.83792 -1.82382 2.38125
      vertex 12.8431 -9.33109 2.38125
    endloop
  endfacet
  facet normal 0 0 1
    outer loop
      vertex 1.40138 3.06859 2.38125
      vertex 7.9375 13.7482 2.38125
      vertex 4.90564 15.098 2.38125
    endloop
  endfacet
  facet normal 0 0 1
    outer loop
      vertex 12.8431 -9.33109 2.38125
      vertex 2.83792 -1.82382 2.38125
      vertex 10.6224 -11.7974 2.38125
    endloop
  endfacet
  facet normal -0 0 1
    outer loop
      vertex 1.40138 -3.06859 2.38125
      vertex 10.6224 -11.7974 2.38125
      vertex 2.83792 -1.82382 2.38125
    endloop
  endfacet
  facet normal 0 0 1
    outer loop
      vertex 15.5281 3.3006 2.38125
      vertex 2.83792 1.82382 2.38125
      vertex 3.37344 0 2.38125
    endloop
  endfacet
  facet normal 0 0 1
    outer loop
      vertex 1.40138 3.06859 2.38125
      vertex 4.90564 15.098 2.38125
      vertex 1.65939 15.788 2.38125
    endloop
  endfacet
  facet normal 0 0 1
    outer loop
      vertex 10.6224 11.7974 2.38125
      vertex 1.40138 3.06859 2.38125
      vertex 2.83792 1.82382 2.38125
    endloop
  endfacet
  facet normal 0 0 1
    outer loop
      vertex 1.65939 15.788 2.38125
      vertex -0.48009 3.3391 2.38125
      vertex 1.40138 3.06859 2.38125
    endloop
  endfacet
  facet normal -0 0 1
    outer loop
      vertex -1.65939 15.788 2.38125
      vertex -0.48009 3.3391 2.38125
      vertex 1.65939 15.788 2.38125
    endloop
  endfacet
  facet normal -0 0 1
    outer loop
      vertex -4.90564 15.098 2.38125
      vertex -0.48009 3.3391 2.38125
      vertex -1.65939 15.788 2.38125
    endloop
  endfacet
  facet normal -0 0 1
    outer loop
      vertex -7.9375 13.7482 2.38125
      vertex -0.48009 3.3391 2.38125
      vertex -4.90564 15.098 2.38125
    endloop
  endfacet
  facet normal -0 0 1
    outer loop
      vertex -10.6224 11.7974 2.38125
      vertex -2.20913 2.54947 2.38125
      vertex -7.9375 13.7482 2.38125
    endloop
  endfacet
  facet normal 0 0 1
    outer loop
      vertex -0.48009 3.3391 2.38125
      vertex -7.9375 13.7482 2.38125
      vertex -2.20913 2.54947 2.38125
    endloop
  endfacet
  facet normal 0 0 1
    outer loop
      vertex 10.6224 -11.7974 2.38125
      vertex 1.40138 -3.06859 2.38125
      vertex 7.9375 -13.7482 2.38125
    endloop
  endfacet
  facet normal 0 0 1
    outer loop
      vertex 7.9375 -13.7482 2.38125
      vertex 1.40138 -3.06859 2.38125
      vertex 4.90564 -15.098 2.38125
    endloop
  endfacet
  facet normal 0 0 1
    outer loop
      vertex 4.90564 -15.098 2.38125
      vertex 1.40138 -3.06859 2.38125
      vertex 1.65939 -15.788 2.38125
    endloop
  endfacet
  facet normal -0 0 1
    outer loop
      vertex -0.48009 -3.3391 2.38125
      vertex 1.65939 -15.788 2.38125
      vertex 1.40138 -3.06859 2.38125
    endloop
  endfacet
  facet normal 0 0 1
    outer loop
      vertex -0.48009 -3.3391 2.38125
      vertex -1.65939 -15.788 2.38125
      vertex 1.65939 -15.788 2.38125
    endloop
  endfacet
  facet normal 0 0 1
    outer loop
      vertex -7.9375 -13.7482 2.38125
      vertex -0.48009 -3.3391 2.38125
      vertex -2.20913 -2.54947 2.38125
    endloop
  endfacet
  facet normal 0 0 1
    outer loop
      vertex -12.8431 -9.33109 2.38125
      vertex -2.20913 -2.54947 2.38125
      vertex -3.23679 -0.950407 2.38125
    endloop
  endfacet
  facet normal 0 0 1
    outer loop
      vertex -0.48009 -3.3391 2.38125
      vertex -4.90564 -15.098 2.38125
      vertex -1.65939 -15.788 2.38125
    endloop
  endfacet
  facet normal -0 0 1
    outer loop
      vertex -12.8431 9.33109 2.38125
      vertex -2.20913 2.54947 2.38125
      vertex -10.6224 11.7974 2.38125
    endloop
  endfacet
  facet normal 0 0 1
    outer loop
      vertex -2.20913 2.54947 2.38125
      vertex -12.8431 9.33109 2.38125
      vertex -3.23679 0.950407 2.38125
    endloop
  endfacet
  facet normal 0 0 1
    outer loop
      vertex -0.48009 -3.3391 2.38125
      vertex -7.9375 -13.7482 2.38125
      vertex -4.90564 -15.098 2.38125
    endloop
  endfacet
  facet normal -0 0 1
    outer loop
      vertex -14.5025 6.45694 2.38125
      vertex -3.23679 0.950407 2.38125
      vertex -12.8431 9.33109 2.38125
    endloop
  endfacet
  facet normal 0 0 1
    outer loop
      vertex -2.20913 -2.54947 2.38125
      vertex -10.6224 -11.7974 2.38125
      vertex -7.9375 -13.7482 2.38125
    endloop
  endfacet
  facet normal -0 0 1
    outer loop
      vertex -15.5281 3.3006 2.38125
      vertex -3.23679 0.950407 2.38125
      vertex -14.5025 6.45694 2.38125
    endloop
  endfacet
  facet normal 0 0 1
    outer loop
      vertex -2.20913 -2.54947 2.38125
      vertex -12.8431 -9.33109 2.38125
      vertex -10.6224 -11.7974 2.38125
    endloop
  endfacet
  facet normal 0 0 1
    outer loop
      vertex -15.875 0 2.38125
      vertex -3.23679 0.950407 2.38125
      vertex -15.5281 3.3006 2.38125
    endloop
  endfacet
  facet normal 0 0 1
    outer loop
      vertex -3.23679 -0.950407 2.38125
      vertex -14.5025 -6.45694 2.38125
      vertex -12.8431 -9.33109 2.38125
    endloop
  endfacet
  facet normal 0 0 1
    outer loop
      vertex -3.23679 0.950407 2.38125
      vertex -15.875 0 2.38125
      vertex -3.23679 -0.950407 2.38125
    endloop
  endfacet
  facet normal 0 0 1
    outer loop
      vertex -3.23679 -0.950407 2.38125
      vertex -15.5281 -3.3006 2.38125
      vertex -14.5025 -6.45694 2.38125
    endloop
  endfacet
  facet normal 0 0 1
    outer loop
      vertex -3.23679 -0.950407 2.38125
      vertex -15.875 0 2.38125
      vertex -15.5281 -3.3006 2.38125
    endloop
  endfacet
  facet normal -0.207908 0.978148 0
    outer loop
      vertex -1.65939 15.788 -2.38125
      vertex -4.90564 15.098 2.38125
      vertex -1.65939 15.788 2.38125
    endloop
  endfacet
  facet normal -0.207908 0.978148 0
    outer loop
      vertex -4.90564 15.098 2.38125
      vertex -1.65939 15.788 -2.38125
      vertex -4.90564 15.098 -2.38125
    endloop
  endfacet
  facet normal 0.994522 -0.104526 0
    outer loop
      vertex 15.5281 -3.3006 2.38125
      vertex 15.875 0 -2.38125
      vertex 15.875 0 2.38125
    endloop
  endfacet
  facet normal 0.994522 -0.104526 0
    outer loop
      vertex 15.875 0 -2.38125
      vertex 15.5281 -3.3006 2.38125
      vertex 15.5281 -3.3006 -2.38125
    endloop
  endfacet
  facet normal 0 0 -1
    outer loop
      vertex 3.37344 0 -2.38125
      vertex 15.875 0 -2.38125
      vertex 15.5281 -3.3006 -2.38125
    endloop
  endfacet
  facet normal 0 0 -1
    outer loop
      vertex 2.83792 -1.82382 -2.38125
      vertex 15.5281 -3.3006 -2.38125
      vertex 14.5025 -6.45694 -2.38125
    endloop
  endfacet
  facet normal 0 0 -1
    outer loop
      vertex 15.875 0 -2.38125
      vertex 3.37344 0 -2.38125
      vertex 15.5281 3.3006 -2.38125
    endloop
  endfacet
  facet normal 0 0 -1
    outer loop
      vertex 2.83792 -1.82382 -2.38125
      vertex 14.5025 -6.45694 -2.38125
      vertex 12.8431 -9.33109 -2.38125
    endloop
  endfacet
  facet normal 0 0 -1
    outer loop
      vertex 2.83792 1.82382 -2.38125
      vertex 15.5281 3.3006 -2.38125
      vertex 3.37344 0 -2.38125
    endloop
  endfacet
  facet normal 0 0 -1
    outer loop
      vertex 2.83792 -1.82382 -2.38125
      vertex 12.8431 -9.33109 -2.38125
      vertex 10.6224 -11.7974 -2.38125
    endloop
  endfacet
  facet normal -0 0 -1
    outer loop
      vertex 15.5281 3.3006 -2.38125
      vertex 2.83792 1.82382 -2.38125
      vertex 14.5025 6.45694 -2.38125
    endloop
  endfacet
  facet normal 0 0 -1
    outer loop
      vertex 1.40138 -3.06859 -2.38125
      vertex 10.6224 -11.7974 -2.38125
      vertex 7.9375 -13.7482 -2.38125
    endloop
  endfacet
  facet normal -0 0 -1
    outer loop
      vertex 14.5025 6.45694 -2.38125
      vertex 2.83792 1.82382 -2.38125
      vertex 12.8431 9.33109 -2.38125
    endloop
  endfacet
  facet normal 0 0 -1
    outer loop
      vertex 1.40138 -3.06859 -2.38125
      vertex 7.9375 -13.7482 -2.38125
      vertex 4.90564 -15.098 -2.38125
    endloop
  endfacet
  facet normal -0 0 -1
    outer loop
      vertex 12.8431 9.33109 -2.38125
      vertex 2.83792 1.82382 -2.38125
      vertex 10.6224 11.7974 -2.38125
    endloop
  endfacet
  facet normal 0 0 -1
    outer loop
      vertex 1.40138 3.06859 -2.38125
      vertex 10.6224 11.7974 -2.38125
      vertex 2.83792 1.82382 -2.38125
    endloop
  endfacet
  facet normal 0 0 -1
    outer loop
      vertex 15.5281 -3.3006 -2.38125
      vertex 2.83792 -1.82382 -2.38125
      vertex 3.37344 0 -2.38125
    endloop
  endfacet
  facet normal 0 0 -1
    outer loop
      vertex 1.40138 -3.06859 -2.38125
      vertex 4.90564 -15.098 -2.38125
      vertex 1.65939 -15.788 -2.38125
    endloop
  endfacet
  facet normal 0 0 -1
    outer loop
      vertex 10.6224 -11.7974 -2.38125
      vertex 1.40138 -3.06859 -2.38125
      vertex 2.83792 -1.82382 -2.38125
    endloop
  endfacet
  facet normal 0 0 -1
    outer loop
      vertex 1.65939 -15.788 -2.38125
      vertex -0.48009 -3.3391 -2.38125
      vertex 1.40138 -3.06859 -2.38125
    endloop
  endfacet
  facet normal 0 0 -1
    outer loop
      vertex -1.65939 -15.788 -2.38125
      vertex -0.48009 -3.3391 -2.38125
      vertex 1.65939 -15.788 -2.38125
    endloop
  endfacet
  facet normal 0 0 -1
    outer loop
      vertex -4.90564 -15.098 -2.38125
      vertex -0.48009 -3.3391 -2.38125
      vertex -1.65939 -15.788 -2.38125
    endloop
  endfacet
  facet normal 0 0 -1
    outer loop
      vertex -7.9375 -13.7482 -2.38125
      vertex -0.48009 -3.3391 -2.38125
      vertex -4.90564 -15.098 -2.38125
    endloop
  endfacet
  facet normal 0 0 -1
    outer loop
      vertex -10.6224 -11.7974 -2.38125
      vertex -2.20913 -2.54947 -2.38125
      vertex -7.9375 -13.7482 -2.38125
    endloop
  endfacet
  facet normal -0 0 -1
    outer loop
      vertex -0.48009 -3.3391 -2.38125
      vertex -7.9375 -13.7482 -2.38125
      vertex -2.20913 -2.54947 -2.38125
    endloop
  endfacet
  facet normal -0 0 -1
    outer loop
      vertex 10.6224 11.7974 -2.38125
      vertex 1.40138 3.06859 -2.38125
      vertex 7.9375 13.7482 -2.38125
    endloop
  endfacet
  facet normal -0 0 -1
    outer loop
      vertex 7.9375 13.7482 -2.38125
      vertex 1.40138 3.06859 -2.38125
      vertex 4.90564 15.098 -2.38125
    endloop
  endfacet
  facet normal -0 0 -1
    outer loop
      vertex 4.90564 15.098 -2.38125
      vertex 1.40138 3.06859 -2.38125
      vertex 1.65939 15.788 -2.38125
    endloop
  endfacet
  facet normal 0 0 -1
    outer loop
      vertex -0.48009 3.3391 -2.38125
      vertex 1.65939 15.788 -2.38125
      vertex 1.40138 3.06859 -2.38125
    endloop
  endfacet
  facet normal 0 0 -1
    outer loop
      vertex -0.48009 3.3391 -2.38125
      vertex -1.65939 15.788 -2.38125
      vertex 1.65939 15.788 -2.38125
    endloop
  endfacet
  facet normal 0 0 -1
    outer loop
      vertex -7.9375 13.7482 -2.38125
      vertex -0.48009 3.3391 -2.38125
      vertex -2.20913 2.54947 -2.38125
    endloop
  endfacet
  facet normal 0 0 -1
    outer loop
      vertex -12.8431 9.33109 -2.38125
      vertex -2.20913 2.54947 -2.38125
      vertex -3.23679 0.950407 -2.38125
    endloop
  endfacet
  facet normal 0 0 -1
    outer loop
      vertex -0.48009 3.3391 -2.38125
      vertex -4.90564 15.098 -2.38125
      vertex -1.65939 15.788 -2.38125
    endloop
  endfacet
  facet normal 0 0 -1
    outer loop
      vertex -12.8431 -9.33109 -2.38125
      vertex -2.20913 -2.54947 -2.38125
      vertex -10.6224 -11.7974 -2.38125
    endloop
  endfacet
  facet normal -0 0 -1
    outer loop
      vertex -2.20913 -2.54947 -2.38125
      vertex -12.8431 -9.33109 -2.38125
      vertex -3.23679 -0.950407 -2.38125
    endloop
  endfacet
  facet normal 0 0 -1
    outer loop
      vertex -0.48009 3.3391 -2.38125
      vertex -7.9375 13.7482 -2.38125
      vertex -4.90564 15.098 -2.38125
    endloop
  endfacet
  facet normal 0 0 -1
    outer loop
      vertex -14.5025 -6.45694 -2.38125
      vertex -3.23679 -0.950407 -2.38125
      vertex -12.8431 -9.33109 -2.38125
    endloop
  endfacet
  facet normal 0 0 -1
    outer loop
      vertex -2.20913 2.54947 -2.38125
      vertex -10.6224 11.7974 -2.38125
      vertex -7.9375 13.7482 -2.38125
    endloop
  endfacet
  facet normal 0 0 -1
    outer loop
      vertex -15.5281 -3.3006 -2.38125
      vertex -3.23679 -0.950407 -2.38125
      vertex -14.5025 -6.45694 -2.38125
    endloop
  endfacet
  facet normal 0 0 -1
    outer loop
      vertex -2.20913 2.54947 -2.38125
      vertex -12.8431 9.33109 -2.38125
      vertex -10.6224 11.7974 -2.38125
    endloop
  endfacet
  facet normal 0 0 -1
    outer loop
      vertex -15.875 0 -2.38125
      vertex -3.23679 -0.950407 -2.38125
      vertex -15.5281 -3.3006 -2.38125
    endloop
  endfacet
  facet normal 0 0 -1
    outer loop
      vertex -3.23679 0.950407 -2.38125
      vertex -14.5025 6.45694 -2.38125
      vertex -12.8431 9.33109 -2.38125
    endloop
  endfacet
  facet normal 0 0 -1
    outer loop
      vertex -3.23679 -0.950407 -2.38125
      vertex -15.875 0 -2.38125
      vertex -3.23679 0.950407 -2.38125
    endloop
  endfacet
  facet normal 0 0 -1
    outer loop
      vertex -3.23679 0.950407 -2.38125
      vertex -15.5281 3.3006 -2.38125
      vertex -14.5025 6.45694 -2.38125
    endloop
  endfacet
  facet normal -0 0 -1
    outer loop
      vertex -3.23679 0.950407 -2.38125
      vertex -15.875 0 -2.38125
      vertex -15.5281 3.3006 -2.38125
    endloop
  endfacet
  facet normal 0.207908 -0.978148 0
    outer loop
      vertex 1.65939 -15.788 -2.38125
      vertex 4.90564 -15.098 2.38125
      vertex 1.65939 -15.788 2.38125
    endloop
  endfacet
  facet normal 0.207908 -0.978148 0
    outer loop
      vertex 4.90564 -15.098 2.38125
      vertex 1.65939 -15.788 -2.38125
      vertex 4.90564 -15.098 -2.38125
    endloop
  endfacet
  facet normal 0.866024 -0.500002 0
    outer loop
      vertex 12.8431 -9.33109 2.38125
      vertex 14.5025 -6.45694 -2.38125
      vertex 14.5025 -6.45694 2.38125
    endloop
  endfacet
  facet normal 0.866024 -0.500002 0
    outer loop
      vertex 14.5025 -6.45694 -2.38125
      vertex 12.8431 -9.33109 2.38125
      vertex 12.8431 -9.33109 -2.38125
    endloop
  endfacet
  facet normal -0.866024 -0.500002 0
    outer loop
      vertex -12.8431 -9.33109 -2.38125
      vertex -14.5025 -6.45694 2.38125
      vertex -14.5025 -6.45694 -2.38125
    endloop
  endfacet
  facet normal -0.866024 -0.500002 0
    outer loop
      vertex -14.5025 -6.45694 2.38125
      vertex -12.8431 -9.33109 -2.38125
      vertex -12.8431 -9.33109 2.38125
    endloop
  endfacet
  facet normal -0.743141 -0.669135 0
    outer loop
      vertex -10.6224 -11.7974 -2.38125
      vertex -12.8431 -9.33109 2.38125
      vertex -12.8431 -9.33109 -2.38125
    endloop
  endfacet
  facet normal -0.743141 -0.669135 0
    outer loop
      vertex -12.8431 -9.33109 2.38125
      vertex -10.6224 -11.7974 -2.38125
      vertex -10.6224 -11.7974 2.38125
    endloop
  endfacet
  facet normal 0.587806 -0.809002 0
    outer loop
      vertex 7.9375 -13.7482 -2.38125
      vertex 10.6224 -11.7974 2.38125
      vertex 7.9375 -13.7482 2.38125
    endloop
  endfacet
  facet normal 0.587806 -0.809002 0
    outer loop
      vertex 10.6224 -11.7974 2.38125
      vertex 7.9375 -13.7482 -2.38125
      vertex 10.6224 -11.7974 -2.38125
    endloop
  endfacet
  facet normal 0.406719 -0.913553 0
    outer loop
      vertex 4.90564 -15.098 -2.38125
      vertex 7.9375 -13.7482 2.38125
      vertex 4.90564 -15.098 2.38125
    endloop
  endfacet
  facet normal 0.406719 -0.913553 0
    outer loop
      vertex 7.9375 -13.7482 2.38125
      vertex 4.90564 -15.098 -2.38125
      vertex 7.9375 -13.7482 -2.38125
    endloop
  endfacet
  facet normal 0.951053 -0.309029 0
    outer loop
      vertex 14.5025 -6.45694 2.38125
      vertex 15.5281 -3.3006 -2.38125
      vertex 15.5281 -3.3006 2.38125
    endloop
  endfacet
  facet normal 0.951053 -0.309029 0
    outer loop
      vertex 15.5281 -3.3006 -2.38125
      vertex 14.5025 -6.45694 2.38125
      vertex 14.5025 -6.45694 -2.38125
    endloop
  endfacet
  facet normal -0.207908 -0.978148 0
    outer loop
      vertex -4.90564 -15.098 -2.38125
      vertex -1.65939 -15.788 2.38125
      vertex -4.90564 -15.098 2.38125
    endloop
  endfacet
  facet normal -0.207908 -0.978148 -0
    outer loop
      vertex -1.65939 -15.788 2.38125
      vertex -4.90564 -15.098 -2.38125
      vertex -1.65939 -15.788 -2.38125
    endloop
  endfacet
  facet normal -0.951053 -0.309029 0
    outer loop
      vertex -14.5025 -6.45694 -2.38125
      vertex -15.5281 -3.3006 2.38125
      vertex -15.5281 -3.3006 -2.38125
    endloop
  endfacet
  facet normal -0.951053 -0.309029 0
    outer loop
      vertex -15.5281 -3.3006 2.38125
      vertex -14.5025 -6.45694 -2.38125
      vertex -14.5025 -6.45694 2.38125
    endloop
  endfacet
  facet normal -0.994522 -0.104526 0
    outer loop
      vertex -15.5281 -3.3006 -2.38125
      vertex -15.875 0 2.38125
      vertex -15.875 0 -2.38125
    endloop
  endfacet
  facet normal -0.994522 -0.104526 0
    outer loop
      vertex -15.875 0 2.38125
      vertex -15.5281 -3.3006 -2.38125
      vertex -15.5281 -3.3006 2.38125
    endloop
  endfacet
  facet normal 0.743141 -0.669135 0
    outer loop
      vertex 10.6224 -11.7974 2.38125
      vertex 12.8431 -9.33109 -2.38125
      vertex 12.8431 -9.33109 2.38125
    endloop
  endfacet
  facet normal 0.743141 -0.669135 0
    outer loop
      vertex 12.8431 -9.33109 -2.38125
      vertex 10.6224 -11.7974 2.38125
      vertex 10.6224 -11.7974 -2.38125
    endloop
  endfacet
  facet normal -0.406719 -0.913553 0
    outer loop
      vertex -7.9375 -13.7482 -2.38125
      vertex -4.90564 -15.098 2.38125
      vertex -7.9375 -13.7482 2.38125
    endloop
  endfacet
  facet normal -0.406719 -0.913553 -0
    outer loop
      vertex -4.90564 -15.098 2.38125
      vertex -7.9375 -13.7482 -2.38125
      vertex -4.90564 -15.098 -2.38125
    endloop
  endfacet
  facet normal -0.587806 -0.809002 0
    outer loop
      vertex -10.6224 -11.7974 -2.38125
      vertex -7.9375 -13.7482 2.38125
      vertex -10.6224 -11.7974 2.38125
    endloop
  endfacet
  facet normal -0.587806 -0.809002 -0
    outer loop
      vertex -7.9375 -13.7482 2.38125
      vertex -10.6224 -11.7974 -2.38125
      vertex -7.9375 -13.7482 -2.38125
    endloop
  endfacet
  facet normal -0.959493 -0.281732 0
    outer loop
      vertex 3.37344 0 -2.38125
      vertex 2.83792 1.82382 2.38125
      vertex 2.83792 1.82382 -2.38125
    endloop
  endfacet
  facet normal -0.959493 -0.281732 0
    outer loop
      vertex 2.83792 1.82382 2.38125
      vertex 3.37344 0 -2.38125
      vertex 3.37344 0 2.38125
    endloop
  endfacet
  facet normal 1 -0 0
    outer loop
      vertex -3.23679 -0.950407 2.38125
      vertex -3.23679 0.950407 -2.38125
      vertex -3.23679 0.950407 2.38125
    endloop
  endfacet
  facet normal 1 0 0
    outer loop
      vertex -3.23679 0.950407 -2.38125
      vertex -3.23679 -0.950407 2.38125
      vertex -3.23679 -0.950407 -2.38125
    endloop
  endfacet
  facet normal 0.415417 -0.909631 0
    outer loop
      vertex -2.20913 2.54947 -2.38125
      vertex -0.48009 3.3391 2.38125
      vertex -2.20913 2.54947 2.38125
    endloop
  endfacet
  facet normal 0.415417 -0.909631 0
    outer loop
      vertex -0.48009 3.3391 2.38125
      vertex -2.20913 2.54947 -2.38125
      vertex -0.48009 3.3391 -2.38125
    endloop
  endfacet
  facet normal -0.654861 -0.755749 0
    outer loop
      vertex 1.40138 3.06859 -2.38125
      vertex 2.83792 1.82382 2.38125
      vertex 1.40138 3.06859 2.38125
    endloop
  endfacet
  facet normal -0.654861 -0.755749 -0
    outer loop
      vertex 2.83792 1.82382 2.38125
      vertex 1.40138 3.06859 -2.38125
      vertex 2.83792 1.82382 -2.38125
    endloop
  endfacet
  facet normal 0.841252 -0.540643 0
    outer loop
      vertex -3.23679 0.950407 2.38125
      vertex -2.20913 2.54947 -2.38125
      vertex -2.20913 2.54947 2.38125
    endloop
  endfacet
  facet normal 0.841252 -0.540643 0
    outer loop
      vertex -2.20913 2.54947 -2.38125
      vertex -3.23679 0.950407 2.38125
      vertex -3.23679 0.950407 -2.38125
    endloop
  endfacet
  facet normal -0.654861 0.755749 0
    outer loop
      vertex 2.83792 -1.82382 -2.38125
      vertex 1.40138 -3.06859 2.38125
      vertex 2.83792 -1.82382 2.38125
    endloop
  endfacet
  facet normal -0.654861 0.755749 0
    outer loop
      vertex 1.40138 -3.06859 2.38125
      vertex 2.83792 -1.82382 -2.38125
      vertex 1.40138 -3.06859 -2.38125
    endloop
  endfacet
  facet normal 0.841252 0.540643 0
    outer loop
      vertex -2.20913 -2.54947 2.38125
      vertex -3.23679 -0.950407 -2.38125
      vertex -3.23679 -0.950407 2.38125
    endloop
  endfacet
  facet normal 0.841252 0.540643 0
    outer loop
      vertex -3.23679 -0.950407 -2.38125
      vertex -2.20913 -2.54947 2.38125
      vertex -2.20913 -2.54947 -2.38125
    endloop
  endfacet
  facet normal -0.142312 -0.989822 0
    outer loop
      vertex -0.48009 3.3391 -2.38125
      vertex 1.40138 3.06859 2.38125
      vertex -0.48009 3.3391 2.38125
    endloop
  endfacet
  facet normal -0.142312 -0.989822 -0
    outer loop
      vertex 1.40138 3.06859 2.38125
      vertex -0.48009 3.3391 -2.38125
      vertex 1.40138 3.06859 -2.38125
    endloop
  endfacet
  facet normal 0.415417 0.909631 -0
    outer loop
      vertex -0.48009 -3.3391 -2.38125
      vertex -2.20913 -2.54947 2.38125
      vertex -0.48009 -3.3391 2.38125
    endloop
  endfacet
  facet normal 0.415417 0.909631 0
    outer loop
      vertex -2.20913 -2.54947 2.38125
      vertex -0.48009 -3.3391 -2.38125
      vertex -2.20913 -2.54947 -2.38125
    endloop
  endfacet
  facet normal -0.959493 0.281732 0
    outer loop
      vertex 2.83792 -1.82382 -2.38125
      vertex 3.37344 0 2.38125
      vertex 3.37344 0 -2.38125
    endloop
  endfacet
  facet normal -0.959493 0.281732 0
    outer loop
      vertex 3.37344 0 2.38125
      vertex 2.83792 -1.82382 -2.38125
      vertex 2.83792 -1.82382 2.38125
    endloop
  endfacet
  facet normal -0.142312 0.989822 0
    outer loop
      vertex 1.40138 -3.06859 -2.38125
      vertex -0.48009 -3.3391 2.38125
      vertex 1.40138 -3.06859 2.38125
    endloop
  endfacet
  facet normal -0.142312 0.989822 0
    outer loop
      vertex -0.48009 -3.3391 2.38125
      vertex 1.40138 -3.06859 -2.38125
      vertex -0.48009 -3.3391 -2.38125
    endloop
  endfacet
endsolid OpenSCAD_Model
